<svg width="22" height="22" viewBox="0 0 22 22" fill="none" xmlns="http://www.w3.org/2000/svg">
<path d="M10.9996 0C8.00966 0 7.63704 0.0144375 6.46691 0.0639375C5.29198 0.121688 4.49723 0.303875 3.79598 0.576125C3.06204 0.853202 2.39737 1.28701 1.84829 1.84731C1.28642 2.39511 0.852374 3.06015 0.577102 3.795C0.304852 4.49625 0.122664 5.291 0.0649141 6.46594C0.0119766 7.63675 0.000976562 8.00869 0.000976562 10.9986C0.000976562 13.9886 0.0154141 14.3612 0.0649141 15.5313C0.122664 16.7028 0.304852 17.501 0.577102 18.2022C0.854178 18.9362 1.28799 19.6009 1.84829 20.1499C2.39609 20.7118 3.06113 21.1459 3.79598 21.4211C4.49723 21.6899 5.29541 21.8756 6.46691 21.9333C7.63773 21.9862 8.00966 21.9972 10.9996 21.9972C13.9895 21.9972 14.3622 21.9828 15.5323 21.9333C16.7038 21.8756 17.502 21.6893 18.2032 21.4211C18.9372 21.144 19.6018 20.7102 20.1509 20.1499C20.7135 19.6027 21.1477 18.9375 21.4221 18.2022C21.6909 17.501 21.8765 16.7028 21.9343 15.5313C21.9872 14.3605 21.9982 13.9886 21.9982 10.9986C21.9982 8.00869 21.9838 7.63606 21.9343 6.46594C21.8765 5.29444 21.6902 4.49213 21.4221 3.795C21.145 3.06107 20.7112 2.39639 20.1509 1.84731C19.6037 1.28472 18.9385 0.850561 18.2032 0.576125C17.502 0.303875 16.7038 0.121688 15.5323 0.0639375C14.3615 0.011 13.9895 0 10.9996 0ZM10.9996 1.98C13.9359 1.98 14.2865 1.99444 15.447 2.04394C16.5175 2.09413 17.1005 2.27288 17.4875 2.42412C17.9661 2.60076 18.3992 2.8819 18.7553 3.24706C19.1198 3.60169 19.3999 4.0338 19.5748 4.51137C19.726 4.89844 19.9048 5.48144 19.955 6.55187C20.0045 7.71237 20.0189 8.06369 20.0189 10.9993C20.0189 13.9349 20.0045 14.2863 19.9509 15.4468C19.8931 16.5172 19.7144 17.1002 19.5638 17.4873C19.3555 18.0036 19.1231 18.3645 18.7395 18.755C18.3821 19.1179 17.9493 19.3977 17.4717 19.5745C17.0895 19.7257 16.4982 19.9045 15.4237 19.9547C14.257 20.0042 13.9132 20.0186 10.9694 20.0186C8.02548 20.0186 7.68241 20.0042 6.51435 19.9506C5.44391 19.8928 4.85335 19.7141 4.46629 19.5635C3.94379 19.3552 3.5856 19.1228 3.20198 18.7392C2.81491 18.3521 2.56879 17.9836 2.37904 17.4714C2.22504 17.0892 2.04904 16.4979 1.99198 15.4234C1.95279 14.2704 1.93423 13.9129 1.93423 10.9828C1.93423 8.05406 1.95279 7.69588 1.99198 6.5285C2.04904 5.45394 2.22504 4.86406 2.37904 4.48044C2.56879 3.95725 2.8156 3.59975 3.20198 3.21269C3.58491 2.82975 3.94379 2.58225 4.46629 2.38838C4.85335 2.23781 5.42948 2.05906 6.50404 2.00544C7.67073 1.9635 8.01448 1.94838 10.9542 1.94838L10.9996 1.98ZM10.9996 5.35356C10.258 5.35329 9.52366 5.49916 8.83848 5.78282C8.1533 6.06648 7.53074 6.48239 7.00636 7.00676C6.48199 7.53114 6.06609 8.1537 5.78242 8.83888C5.49876 9.52406 5.35289 10.2584 5.35316 11C5.35289 11.7416 5.49876 12.4759 5.78242 13.1611C6.06609 13.8463 6.48199 14.4689 7.00636 14.9932C7.53074 15.5176 8.1533 15.9335 8.83848 16.2172C9.52366 16.5008 10.258 16.6467 10.9996 16.6464C11.7412 16.6467 12.4755 16.5008 13.1607 16.2172C13.8459 15.9335 14.4685 15.5176 14.9928 14.9932C15.5172 14.4689 15.9331 13.8463 16.2168 13.1611C16.5004 12.4759 16.6463 11.7416 16.646 11C16.6463 10.2584 16.5004 9.52406 16.2168 8.83888C15.9331 8.1537 15.5172 7.53114 14.9928 7.00676C14.4685 6.48239 13.8459 6.06648 13.1607 5.78282C12.4755 5.49916 11.7412 5.35329 10.9996 5.35356ZM10.9996 14.6664C8.97285 14.6664 7.33316 13.0267 7.33316 11C7.33316 8.97325 8.97285 7.33356 10.9996 7.33356C13.0264 7.33356 14.666 8.97325 14.666 11C14.666 13.0267 13.0264 14.6664 10.9996 14.6664ZM18.1936 5.12806C18.1932 5.47846 18.0538 5.81438 17.8059 6.06201C17.558 6.30965 17.2219 6.44875 16.8715 6.44875C16.6983 6.44875 16.5267 6.41463 16.3667 6.34832C16.2066 6.28202 16.0612 6.18484 15.9386 6.06233C15.8161 5.93982 15.719 5.79438 15.6527 5.63432C15.5864 5.47425 15.5522 5.30269 15.5522 5.12944C15.5522 4.95618 15.5864 4.78463 15.6527 4.62456C15.719 4.46449 15.8161 4.31905 15.9386 4.19654C16.0612 4.07403 16.2066 3.97685 16.3667 3.91055C16.5267 3.84425 16.6983 3.81012 16.8715 3.81012C17.5982 3.81012 18.1936 4.40137 18.1936 5.12806Z" fill="#4D4D4D"/>
</svg>
