<svg width="22" height="22" viewBox="0 0 22 22" fill="none" xmlns="http://www.w3.org/2000/svg">
<path fill-rule="evenodd" clip-rule="evenodd" d="M16.0389 14.5769C17.3289 12.9132 17.9368 10.8204 17.739 8.72417C17.5413 6.62799 16.5527 4.68591 14.9744 3.29302C13.3962 1.90013 11.3467 1.16107 9.24306 1.22619C7.13942 1.29132 5.13958 2.15573 3.6504 3.64357C2.15992 5.13245 1.29303 7.13386 1.22638 9.23995C1.15973 11.346 1.89833 13.3983 3.29168 14.9785C4.68503 16.5587 6.62826 17.548 8.72536 17.7446C10.8225 17.9413 12.9156 17.3306 14.5783 16.037L14.6228 16.0836L19.0109 20.4745C19.107 20.5707 19.2211 20.6469 19.3467 20.699C19.4723 20.751 19.6068 20.7778 19.7428 20.7778C19.8787 20.7778 20.0133 20.751 20.1389 20.699C20.2644 20.6469 20.3785 20.5707 20.4746 20.4745C20.5707 20.3784 20.647 20.2642 20.699 20.1386C20.751 20.013 20.7778 19.8783 20.7778 19.7423C20.7778 19.6064 20.751 19.4717 20.699 19.3461C20.647 19.2205 20.5707 19.1063 20.4746 19.0102L16.0855 14.6203C16.0704 14.6054 16.0548 14.5909 16.0389 14.5769ZM13.8914 5.1079C14.4755 5.68274 14.94 6.36758 15.2581 7.12291C15.5763 7.87824 15.7418 8.68911 15.7451 9.50876C15.7485 10.3284 15.5896 11.1406 15.2776 11.8985C14.9656 12.6564 14.5067 13.345 13.9273 13.9246C13.348 14.5042 12.6596 14.9633 11.902 15.2754C11.1444 15.5875 10.3326 15.7465 9.51325 15.7431C8.69393 15.7398 7.88338 15.5742 7.12835 15.2559C6.37332 14.9376 5.68875 14.473 5.11414 13.8887C3.96582 12.721 3.32523 11.1468 3.33189 9.50876C3.33856 7.87076 3.99195 6.30176 5.14974 5.14351C6.30752 3.98526 7.8759 3.33161 9.51325 3.32494C11.1506 3.31827 12.7242 3.95912 13.8914 5.1079Z" fill="#CCCCCC"/>
</svg>
