<svg width="10" height="10" viewBox="0 0 10 10" fill="none" xmlns="http://www.w3.org/2000/svg">
<path d="M4.4907 0.386919C4.65101 -0.128972 5.34899 -0.128973 5.5093 0.386918L6.32252 3.00401C6.39421 3.23472 6.59982 3.39092 6.83182 3.39092H9.46346C9.98222 3.39092 10.1979 4.08505 9.77823 4.40389L7.64919 6.02134C7.4615 6.16393 7.38296 6.41667 7.45465 6.64738L8.26787 9.26447C8.42818 9.78036 7.86349 10.2094 7.44381 9.89052L5.31476 8.27307C5.12707 8.13048 4.87292 8.13048 4.68524 8.27307L2.55619 9.89052C2.13651 10.2094 1.57182 9.78036 1.73213 9.26447L2.54535 6.64739C2.61704 6.41667 2.5385 6.16393 2.35081 6.02134L0.221771 4.40389C-0.197914 4.08505 0.0177751 3.39092 0.536535 3.39092H3.16818C3.40017 3.39092 3.60579 3.23472 3.67748 3.00401L4.4907 0.386919Z" fill="#B8D9C0"/>
</svg>
