<svg width="22" height="22" viewBox="0 0 22 22" fill="none" xmlns="http://www.w3.org/2000/svg">
<path d="M2.75 11C2.75 6.44365 6.44365 2.75 11 2.75C12.696 2.75 14.2724 3.26175 15.5833 4.13925L17.7214 2.29167C15.8626 0.854884 13.5311 0 11 0C4.92487 0 0 4.92487 0 11C0 17.0751 4.92487 22 11 22C17.0751 22 22 17.0751 22 11C22 10.3754 21.9479 9.76288 21.8479 9.16667L19.2464 11.2449C19.1169 15.6879 15.4744 19.25 11 19.25C6.44365 19.25 2.75 15.5563 2.75 11Z" fill="white"/>
<path fill-rule="evenodd" clip-rule="evenodd" d="M20.6163 6.78479L10.5417 14.5697L6.41669 11.8197V8.61139L10.5417 11.3614L19.4379 4.58331C19.9355 5.24681 20.3354 5.98775 20.6163 6.78479Z" fill="white"/>
</svg>
