<svg width="22" height="22" viewBox="0 0 22 22" fill="none" xmlns="http://www.w3.org/2000/svg">
<path d="M15.5833 7.41667L20.1657 7.41667C20.1658 7.41667 20.1659 7.41667 20.1661 7.41667C20.3309 7.41691 20.4906 7.46587 20.626 7.55556H20.1667H14.4444V1.83333V1.37396C14.5341 1.50929 14.583 1.66893 14.5833 1.83365C14.5833 1.83388 14.5833 1.83411 14.5833 1.83433L14.5833 6.41667V7.41667H15.5833ZM20.1667 14.4444H20.6254C20.49 14.534 20.3304 14.583 20.1657 14.5833C20.1655 14.5833 20.1653 14.5833 20.1652 14.5833L15.5833 14.5833H14.5833V15.5833L14.5833 20.1652C14.5833 20.1653 14.5833 20.1655 14.5833 20.1657C14.583 20.3304 14.534 20.49 14.4444 20.6254V20.1667V14.4444H20.1667ZM7.41667 6.41667L7.41667 1.83433C7.41667 1.8342 7.41667 1.83407 7.41667 1.83394C7.41691 1.66912 7.46587 1.50937 7.55556 1.37396V1.83333V7.55556H1.83333H1.37396C1.50937 7.46587 1.66912 7.41691 1.83394 7.41667C1.83407 7.41667 1.8342 7.41667 1.83433 7.41667L6.41667 7.41667H7.41667V6.41667ZM1.83365 14.5833C1.66893 14.583 1.50929 14.5341 1.37396 14.4444H1.83333H7.55556V20.1667V20.626C7.46587 20.4906 7.41691 20.3309 7.41667 20.1661C7.41667 20.1659 7.41667 20.1658 7.41667 20.1657L7.41667 15.5833V14.5833H6.41667L1.83433 14.5833C1.83411 14.5833 1.83388 14.5833 1.83365 14.5833ZM7.55556 9.55556C8.66012 9.55556 9.55556 8.66013 9.55556 7.55556V2.83333H12.4444V7.55556C12.4444 8.66012 13.3399 9.55556 14.4444 9.55556H19.1667V12.4444H14.4444C13.3399 12.4444 12.4444 13.3399 12.4444 14.4444V19.1667H9.55556V14.4444C9.55556 13.3399 8.66013 12.4444 7.55556 12.4444H2.83333V9.55556H7.55556Z" fill="#4D4D4D" stroke="#4D4D4D" stroke-width="2"/>
</svg>
