<svg width="22" height="22" viewBox="0 0 22 22" fill="none" xmlns="http://www.w3.org/2000/svg">
<path fill-rule="evenodd" clip-rule="evenodd" d="M6.97263 1.70925C7.06635 1.55281 7.21838 1.44 7.39527 1.39565C7.57216 1.3513 7.75943 1.37903 7.91587 1.47275C8.07232 1.56647 8.18513 1.7185 8.22948 1.89539C8.27383 2.07228 8.2461 2.25955 8.15238 2.41599L4.65162 8.25008H17.3484L13.8462 2.41599C13.7525 2.25955 13.7248 2.07228 13.7691 1.89539C13.8135 1.7185 13.9263 1.56647 14.0827 1.47275C14.2392 1.37903 14.4265 1.3513 14.6034 1.39565C14.7802 1.44 14.9323 1.55281 15.026 1.70925L18.9516 8.25008H21.3125C21.4948 8.25008 21.6697 8.32252 21.7986 8.45145C21.9276 8.58038 22 8.75524 22 8.93758V11.6876C22 11.8699 21.9276 12.0448 21.7986 12.1737C21.6697 12.3026 21.4948 12.3751 21.3125 12.3751H20.625V19.25C20.625 19.9794 20.3353 20.6788 19.8195 21.1945C19.3038 21.7103 18.6043 22 17.875 22H4.125C3.39565 22 2.69618 21.7103 2.18046 21.1945C1.66473 20.6788 1.375 19.9794 1.375 19.25V12.3751H0.6875C0.505164 12.3751 0.330295 12.3026 0.201364 12.1737C0.0724328 12.0448 0 11.8699 0 11.6876V8.93758C0 8.75524 0.0724328 8.58038 0.201364 8.45145C0.330295 8.32252 0.505164 8.25008 0.6875 8.25008H3.04838L6.97125 1.70925H6.97263ZM4.8125 14.4375C4.8125 14.2552 4.74007 14.0803 4.61114 13.9514C4.4822 13.8225 4.30734 13.7501 4.125 13.7501C3.94266 13.7501 3.7678 13.8225 3.63886 13.9514C3.50993 14.0803 3.4375 14.2552 3.4375 14.4375V18.5625C3.4375 18.7449 3.50993 18.9197 3.63886 19.0487C3.7678 19.1776 3.94266 19.25 4.125 19.25C4.30734 19.25 4.4822 19.1776 4.61114 19.0487C4.74007 18.9197 4.8125 18.7449 4.8125 18.5625V14.4375ZM8.25 14.4375C8.25 14.2552 8.17757 14.0803 8.04864 13.9514C7.9197 13.8225 7.74484 13.7501 7.5625 13.7501C7.38016 13.7501 7.2053 13.8225 7.07636 13.9514C6.94743 14.0803 6.875 14.2552 6.875 14.4375V18.5625C6.875 18.7449 6.94743 18.9197 7.07636 19.0487C7.2053 19.1776 7.38016 19.25 7.5625 19.25C7.74484 19.25 7.9197 19.1776 8.04864 19.0487C8.17757 18.9197 8.25 18.7449 8.25 18.5625V14.4375ZM11.6875 14.4375C11.6875 14.2552 11.6151 14.0803 11.4861 13.9514C11.3572 13.8225 11.1823 13.7501 11 13.7501C10.8177 13.7501 10.6428 13.8225 10.5139 13.9514C10.3849 14.0803 10.3125 14.2552 10.3125 14.4375V18.5625C10.3125 18.7449 10.3849 18.9197 10.5139 19.0487C10.6428 19.1776 10.8177 19.25 11 19.25C11.1823 19.25 11.3572 19.1776 11.4861 19.0487C11.6151 18.9197 11.6875 18.7449 11.6875 18.5625V14.4375ZM15.125 14.4375C15.125 14.2552 15.0526 14.0803 14.9236 13.9514C14.7947 13.8225 14.6198 13.7501 14.4375 13.7501C14.2552 13.7501 14.0803 13.8225 13.9514 13.9514C13.8224 14.0803 13.75 14.2552 13.75 14.4375V18.5625C13.75 18.7449 13.8224 18.9197 13.9514 19.0487C14.0803 19.1776 14.2552 19.25 14.4375 19.25C14.6198 19.25 14.7947 19.1776 14.9236 19.0487C15.0526 18.9197 15.125 18.7449 15.125 18.5625V14.4375ZM18.5625 14.4375C18.5625 14.2552 18.4901 14.0803 18.3611 13.9514C18.2322 13.8225 18.0573 13.7501 17.875 13.7501C17.6927 13.7501 17.5178 13.8225 17.3889 13.9514C17.2599 14.0803 17.1875 14.2552 17.1875 14.4375V18.5625C17.1875 18.7449 17.2599 18.9197 17.3889 19.0487C17.5178 19.1776 17.6927 19.25 17.875 19.25C18.0573 19.25 18.2322 19.1776 18.3611 19.0487C18.4901 18.9197 18.5625 18.7449 18.5625 18.5625V14.4375Z" fill="#4D4D4D"/>
</svg>
