<svg width="22" height="22" viewBox="0 0 22 22" fill="none" xmlns="http://www.w3.org/2000/svg">
<path d="M21.0572 6.61226C20.6924 6.40999 20.1879 6.41544 19.8153 6.20461C19.0887 5.78917 18.9013 5.1808 18.8704 4.27913C17.2814 2.55671 14.9071 1.03112 11.6011 1.07935C10.7048 1.09258 9.86089 1.05212 9.16512 1.41777C8.96611 1.69317 9.16203 1.8192 9.38727 1.88455C9.16357 1.99113 8.85349 1.99813 8.9044 2.42602C11.0025 2.12805 14.6703 2.91147 14.3934 4.73347C14.3317 5.13801 13.8265 5.57056 13.4832 5.94943C12.5097 7.02458 11.4792 7.85545 10.5829 8.80224L10.8421 9.06364C11.4144 8.65909 11.9575 8.45293 12.465 8.45293C13.0104 8.45293 13.3289 8.68399 13.4493 8.78979C13.8928 8.30901 14.3487 7.822 14.8686 7.34822C15.2442 7.0028 15.6754 6.49245 16.0758 6.43177L16.807 6.35398C17.6987 6.38976 18.3011 6.57959 18.7123 7.31088C18.9205 7.68586 18.9151 8.19776 19.1149 8.56652C19.2499 8.81936 19.8377 9.51564 20.13 9.52342C20.3568 9.52964 20.5952 9.36782 20.8243 9.14221L21.6203 8.33702C21.844 8.10829 22.006 7.87023 21.9998 7.63996C21.9952 7.34433 21.3056 6.74918 21.0564 6.61304L21.0572 6.61226ZM9.08798 10.8849L8.51717 10.3092C6.09509 12.3646 3.48788 14.7731 1.16608 16.9904C0.800455 17.3358 0.0452906 17.7854 0.00363703 18.1884C-0.0603861 18.7952 0.736432 19.3281 1.16531 19.7444C1.59342 20.159 2.09866 20.9907 2.70264 20.9191C3.09603 20.8856 3.54728 20.1178 3.89362 19.7506C5.7015 17.8386 7.47161 15.8908 9.20291 13.908C8.96225 13.6202 8.81877 13.4452 8.81877 13.4452C8.7131 13.2958 8.12995 12.3793 9.08875 10.8856L9.08798 10.8849ZM14.9658 11.1105C14.6834 10.8631 13.835 11.2217 13.5951 11.0156C13.3559 10.8094 13.7262 10.0369 13.5488 9.88439L12.9548 9.38183C12.9548 9.38183 12.2891 8.73611 10.785 10.1038L4.78377 4.05119C4.47909 3.74389 4.60096 2.63373 4.60096 2.63373L1.75772 1L1.06812 1.69628L2.68798 4.56465C2.68798 4.56465 3.78949 4.44173 4.09495 4.74903L10.1054 10.8117C8.9098 12.2354 9.41427 12.9527 9.41427 12.9527C9.41427 12.9527 9.59785 13.176 9.91257 13.5517C10.0638 13.7307 10.8289 13.3572 11.0349 13.5984C11.2385 13.8419 10.8837 14.6953 11.1275 14.9816C13.1839 17.3653 16.4699 21 17.3948 21C18.0828 21 18.9529 20.4368 19.6688 19.7241C20.3823 19.0107 20.9338 18.1254 20.9338 17.4315C20.9338 16.4979 17.3285 13.1853 14.965 11.1112L14.9658 11.1105Z" fill="#4D4D4D"/>
</svg>
