<svg width="24" height="24" viewBox="0 0 24 24" fill="none" xmlns="http://www.w3.org/2000/svg">
<g clip-path="url(#clip0)">
<path d="M1.1997 14.393H3.59974V22.7991C3.59974 23.1176 3.72617 23.4231 3.95121 23.6483C4.17626 23.8735 4.48149 24 4.79975 24H19.2C19.5182 24 19.8234 23.8735 20.0485 23.6483C20.2735 23.4231 20.4 23.1176 20.4 22.7991V14.393H22.8C23.0319 14.3932 23.2589 14.3261 23.4534 14.1996C23.6479 14.0732 23.8015 13.893 23.8956 13.6809C23.9904 13.4689 24.0215 13.2339 23.9853 13.0045C23.9491 12.7751 23.8471 12.5612 23.6916 12.3888L12.8915 0.380076C12.4367 -0.126692 11.563 -0.126692 11.1082 0.380076L0.30809 12.3888C0.152917 12.5613 0.0510319 12.7751 0.0147625 13.0044C-0.0215069 13.2336 0.00939402 13.4685 0.103726 13.6806C0.198059 13.8926 0.351779 14.0728 0.546288 14.1992C0.740796 14.3256 0.967755 14.393 1.1997 14.393ZM7.9834 11.5602C8.48288 11.0667 9.15652 10.79 9.85842 10.79C10.5603 10.79 11.234 11.0667 11.7334 11.5602L12.0023 11.8244L12.2699 11.5602C12.7695 11.0666 13.4434 10.7899 14.1455 10.7899C14.8476 10.7899 15.5214 11.0666 16.0211 11.5602C16.269 11.7988 16.4662 12.0851 16.6009 12.4018C16.7356 12.7186 16.8051 13.0593 16.8051 13.4035C16.8051 13.7478 16.7356 14.0884 16.6009 14.4052C16.4662 14.7219 16.269 15.0082 16.0211 15.2469L12.7032 18.5076C12.3141 18.89 11.6904 18.89 11.3013 18.5076L7.9834 15.2469C7.7355 15.0082 7.53829 14.7219 7.40358 14.4052C7.26887 14.0884 7.19944 13.7478 7.19944 13.4035C7.19944 13.0593 7.26887 12.7186 7.40358 12.4018C7.53829 12.0851 7.7355 11.7988 7.9834 11.5602Z" fill="#4D4D4D"/>
</g>
<defs>
<clipPath id="clip0">
<rect width="24" height="24" fill="white"/>
</clipPath>
</defs>
</svg>
