<svg width="22" height="23" viewBox="0 0 22 23" fill="none" xmlns="http://www.w3.org/2000/svg">
<g clip-path="url(#clip0)">
<path d="M2.75 11.5C2.75 6.94365 6.44365 3.25 11 3.25C12.696 3.25 14.2724 3.76175 15.5833 4.63925L17.7214 2.79167C15.8626 1.35488 13.5311 0.5 11 0.5C4.92487 0.5 0 5.42487 0 11.5C0 17.5751 4.92487 22.5 11 22.5C17.0751 22.5 22 17.5751 22 11.5C22 10.8754 21.9479 10.2629 21.8479 9.66667L19.2464 11.7449C19.1169 16.1879 15.4744 19.75 11 19.75C6.44365 19.75 2.75 16.0563 2.75 11.5Z" fill="#30BF54"/>
<path fill-rule="evenodd" clip-rule="evenodd" d="M20.6163 7.28478L10.5417 15.0697L6.41667 12.3197V9.11138L10.5417 11.8614L19.4379 5.0833C19.9354 5.7468 20.3354 6.48774 20.6163 7.28478Z" fill="#30BF54"/>
</g>
<defs>
<clipPath id="clip0">
<rect width="22" height="22" fill="white" transform="translate(0 0.5)"/>
</clipPath>
</defs>
</svg>
