<svg width="22" height="22" viewBox="0 0 22 22" fill="none" xmlns="http://www.w3.org/2000/svg">
<path fill-rule="evenodd" clip-rule="evenodd" d="M21.2509 3.79667C21.4926 3.3467 20.9447 3.48317 20.9447 3.48317C20.9447 3.48317 17.2916 6.98976 16.7839 6.56007C16.2762 6.13038 20.3606 2.76954 19.8773 2.14151C19.4301 1.5561 15.8417 5.73542 15.4106 5.22495C14.9837 4.71551 18.4834 1.05767 18.4834 1.05767C18.4834 1.05767 18.6164 0.506978 18.1699 0.748291C12.6675 3.70729 11.9666 6.46588 11.9666 6.46588C11.9666 6.46588 11.7772 7.00317 12.1883 7.41842C12.2285 7.45451 2.14944 17.4765 0.800219 18.8295C0.143656 19.4854 2.55266 21.8549 3.20509 21.199C4.55466 19.846 14.5571 9.7511 14.5932 9.78857C15.0081 10.2028 15.544 10.0127 15.544 10.0127C15.544 10.0127 18.2981 9.30973 21.2509 3.79667Z" fill="#4D4D4D"/>
<path fill-rule="evenodd" clip-rule="evenodd" d="M11.0096 13.9242C13.6919 16.6123 18.2139 21.1426 18.2139 21.1426C18.2139 21.1426 20.1877 20.4967 20.4658 18.8295L13.29 11.6396C12.5292 12.4005 11.769 13.162 11.0096 13.9242Z" fill="#4D4D4D"/>
<path fill-rule="evenodd" clip-rule="evenodd" d="M7.48 11.5943C8.44214 10.633 9.40315 9.67045 10.363 8.70683L2.56403 0.893046C2.56403 0.893046 2.42309 0.745233 2.11269 1.05701C1.49634 1.6713 0.303874 5.58523 5.3594 10.6483C6.16069 11.4513 6.85781 11.5627 7.48 11.5943Z" fill="#4D4D4D"/>
</svg>
