<svg width="22" height="22" viewBox="0 0 22 22" fill="none" xmlns="http://www.w3.org/2000/svg">
<g clip-path="url(#clip0)">
<path d="M21.2476 2.26061C19.3116 1.62591 14.3 -0.0163765 14.3 0.000123423C14.3 0.875333 13.9523 1.7147 13.3335 2.33356C12.7146 2.95243 11.8752 3.3001 11 3.3001C10.1248 3.3001 9.28542 2.95243 8.66655 2.33356C8.04768 1.7147 7.70001 0.875333 7.70001 0.000123423C7.70001 -0.0163765 2.68841 1.62591 0.751315 2.26061C0.531843 2.33255 0.340857 2.47227 0.205848 2.65966C0.0708393 2.84705 -0.00122938 3.07245 1.58695e-05 3.3034V7.39098C6.20256e-05 7.55807 0.0381714 7.72295 0.111452 7.87311C0.184732 8.02327 0.291257 8.15476 0.422942 8.25761C0.554627 8.36045 0.708011 8.43195 0.871451 8.46666C1.03489 8.50138 1.20409 8.49841 1.36621 8.45798L4.40001 7.70008V20.9C4.40001 21.1917 4.5159 21.4715 4.72219 21.6778C4.92848 21.8841 5.20827 22 5.50001 22H16.5C16.7917 22 17.0715 21.8841 17.2778 21.6778C17.4841 21.4715 17.6 21.1917 17.6 20.9V7.70008L20.6338 8.45798C20.7959 8.49841 20.9651 8.50138 21.1286 8.46666C21.292 8.43195 21.4454 8.36045 21.5771 8.25761C21.7087 8.15476 21.8153 8.02327 21.8886 7.87311C21.9618 7.72295 21.9999 7.55807 22 7.39098V3.3034C22.0012 3.07231 21.9289 2.84681 21.7937 2.65941C21.6585 2.472 21.4673 2.33236 21.2476 2.26061Z" fill="#4D4D4D"/>
</g>
<defs>
<clipPath id="clip0">
<rect width="22" height="22" fill="white"/>
</clipPath>
</defs>
</svg>
