<svg width="22" height="22" viewBox="0 0 22 22" fill="none" xmlns="http://www.w3.org/2000/svg">
<path d="M3.575 5.28571H1.925C1.46781 5.28571 1.1 5.66786 1.1 6.14286V9.85714H0.275C0.12375 9.85714 0 9.98571 0 10.1429V11.8571C0 12.0143 0.12375 12.1429 0.275 12.1429H1.1V15.8571C1.1 16.3321 1.46781 16.7143 1.925 16.7143H3.575C4.03219 16.7143 4.4 16.3321 4.4 15.8571V6.14286C4.4 5.66786 4.03219 5.28571 3.575 5.28571ZM21.725 9.85714H20.9V6.14286C20.9 5.66786 20.5322 5.28571 20.075 5.28571H18.425C17.9678 5.28571 17.6 5.66786 17.6 6.14286V15.8571C17.6 16.3321 17.9678 16.7143 18.425 16.7143H20.075C20.5322 16.7143 20.9 16.3321 20.9 15.8571V12.1429H21.725C21.8763 12.1429 22 12.0143 22 11.8571V10.1429C22 9.98571 21.8763 9.85714 21.725 9.85714ZM15.675 3H14.025C13.5678 3 13.2 3.38214 13.2 3.85714V9.85714H8.8V3.85714C8.8 3.38214 8.43219 3 7.975 3H6.325C5.86781 3 5.5 3.38214 5.5 3.85714V18.1429C5.5 18.6179 5.86781 19 6.325 19H7.975C8.43219 19 8.8 18.6179 8.8 18.1429V12.1429H13.2V18.1429C13.2 18.6179 13.5678 19 14.025 19H15.675C16.1322 19 16.5 18.6179 16.5 18.1429V3.85714C16.5 3.38214 16.1322 3 15.675 3Z" fill="#4D4D4D"/>
</svg>
