<svg width="18" height="22" viewBox="0 0 18 22" fill="none" xmlns="http://www.w3.org/2000/svg">
<path d="M7.65074 12.642C8.63149 13.8838 9.81817 14.8424 11.1274 15.4508L12.8987 13.6916C12.9512 13.6465 13.0135 13.6223 13.0772 13.6223C13.141 13.6223 13.2032 13.6465 13.2557 13.6916L16.5445 16.3362C16.6694 16.4299 16.7751 16.5585 16.8532 16.7119C16.9314 16.8654 16.9799 17.0394 16.995 17.2202C17.01 17.4011 16.9912 17.5838 16.9399 17.754C16.8886 17.9242 16.8063 18.0772 16.6996 18.2009L15.1585 20.1007C14.9378 20.3729 14.6666 20.5726 14.369 20.6821C14.0714 20.7916 13.7568 20.8074 13.4531 20.7281C10.4237 19.9473 7.63154 18.1185 5.39558 15.4508C3.20924 12.7565 1.69631 9.32832 1.0403 5.58205C0.9755 5.2089 0.989025 4.82119 1.07957 4.45648C1.17012 4.09178 1.33461 3.76245 1.55711 3.50041L3.15452 1.5771C3.25337 1.45032 3.37392 1.35309 3.50714 1.29269C3.64036 1.2323 3.78281 1.2103 3.92381 1.22835C4.06481 1.2464 4.20071 1.30403 4.32134 1.39692C4.44197 1.48981 4.5442 1.61555 4.62037 1.76474L6.80975 5.8166C6.84751 5.88022 6.8679 5.95731 6.8679 6.03649C6.8679 6.11567 6.84751 6.19275 6.80975 6.25638L5.36739 8.42011C5.86802 10.0215 6.64801 11.4636 7.65074 12.642Z" stroke="#4D4D4D" stroke-width="2"/>
</svg>
