<svg width="22" height="22" viewBox="0 0 22 22" fill="none" xmlns="http://www.w3.org/2000/svg">
<g clip-path="url(#clip0)">
<path d="M17.7599 15.6942H16.1628C15.5578 15.6942 15.3715 15.2144 14.2832 14.1116C13.3379 13.1952 12.9192 13.0735 12.6861 13.0735C12.3568 13.0735 12.2633 13.1663 12.2633 13.618V15.0611C12.2633 15.4481 12.1416 15.6805 11.1173 15.6805C9.42327 15.6805 7.54365 14.6561 6.22571 12.7476C4.23815 9.95088 3.69434 7.85606 3.69434 7.42294C3.69434 7.18988 3.78715 6.97194 4.23471 6.97194H5.83521C6.24015 6.97194 6.39415 7.15825 6.55159 7.59137C7.3429 9.87594 8.66084 11.8772 9.20465 11.8772C9.4054 11.8772 9.49821 11.7844 9.49821 11.2723V8.91275C9.43702 7.82444 8.86434 7.73094 8.86434 7.34456C8.86434 7.15825 9.01834 6.97194 9.26515 6.97194H11.7821C12.1224 6.97194 12.2475 7.15825 12.2475 7.55906V10.7422C12.2475 11.0859 12.4015 11.2076 12.4943 11.2076C12.6951 11.2076 12.867 11.0859 13.2389 10.7133C14.3884 9.42425 15.212 7.43669 15.212 7.43669C15.3193 7.20363 15.5056 6.98569 15.9105 6.98569H17.511C17.9909 6.98569 18.0982 7.2325 17.9909 7.57625C17.7901 8.50712 15.8315 11.2716 15.8315 11.2716C15.663 11.5507 15.5984 11.6724 15.8315 11.9838C16.0033 12.2169 16.5623 12.7002 16.9342 13.1333C17.6183 13.9102 18.1442 14.5619 18.2845 15.0129C18.4419 15.4605 18.2095 15.6936 17.7578 15.6936L17.7599 15.6942Z" fill="#4D4D4D"/>
<path d="M10.999 0C8.00905 0 7.63643 0.0144375 6.4663 0.0639375C5.29137 0.121688 4.49662 0.303875 3.79537 0.576125C3.06143 0.853202 2.39676 1.28701 1.84768 1.84731C1.28581 2.39511 0.851764 3.06015 0.576491 3.795C0.304241 4.49625 0.122054 5.291 0.0643037 6.46594C0.0113662 7.63675 0.000366211 8.00869 0.000366211 10.9986C0.000366211 13.9886 0.0148037 14.3612 0.0643037 15.5313C0.122054 16.7028 0.304241 17.501 0.576491 18.2022C0.853568 18.9362 1.28738 19.6009 1.84768 20.1499C2.39548 20.7118 3.06052 21.1459 3.79537 21.4211C4.49662 21.6899 5.2948 21.8756 6.4663 21.9333C7.63712 21.9862 8.00905 21.9972 10.999 21.9972C13.9889 21.9972 14.3616 21.9828 15.5317 21.9333C16.7032 21.8756 17.5014 21.6893 18.2026 21.4211C18.9366 21.144 19.6012 20.7102 20.1503 20.1499C20.7129 19.6027 21.1471 18.9375 21.4215 18.2022C21.6903 17.501 21.8759 16.7028 21.9337 15.5313C21.9866 14.3605 21.9976 13.9886 21.9976 10.9986C21.9976 8.00869 21.9832 7.63606 21.9337 6.46594C21.8759 5.29444 21.6896 4.49213 21.4215 3.795C21.1444 3.06107 20.7106 2.39639 20.1503 1.84731C19.6031 1.28472 18.9379 0.850561 18.2026 0.576125C17.5014 0.303875 16.7032 0.121688 15.5317 0.0639375C14.3609 0.011 13.9889 0 10.999 0ZM10.999 1.98C13.9353 1.98 14.2859 1.99444 15.4464 2.04394C16.5169 2.09413 17.0999 2.27288 17.4869 2.42412C17.9654 2.60076 18.3985 2.8819 18.7547 3.24706C19.1192 3.60169 19.3993 4.0338 19.5742 4.51137C19.7254 4.89844 19.9042 5.48144 19.9544 6.55187C20.0039 7.71237 20.0183 8.06369 20.0183 10.9993C20.0183 13.9349 20.0039 14.2863 19.9502 15.4468C19.8925 16.5172 19.7137 17.1002 19.5632 17.4873C19.3549 18.0036 19.1225 18.3645 18.7389 18.755C18.3815 19.1179 17.9487 19.3977 17.4711 19.5745C17.0889 19.7257 16.4976 19.9045 15.4231 19.9547C14.2564 20.0042 13.9126 20.0186 10.9687 20.0186C8.02487 20.0186 7.6818 20.0042 6.51374 19.9506C5.4433 19.8928 4.85274 19.7141 4.46568 19.5635C3.94318 19.3552 3.58499 19.1228 3.20137 18.7392C2.8143 18.3521 2.56818 17.9836 2.37843 17.4714C2.22443 17.0892 2.04843 16.4979 1.99137 15.4234C1.95218 14.2704 1.93362 13.9129 1.93362 10.9828C1.93362 8.05406 1.95218 7.69588 1.99137 6.5285C2.04843 5.45394 2.22443 4.86406 2.37843 4.48044C2.56818 3.95725 2.81499 3.59975 3.20137 3.21269C3.5843 2.82975 3.94318 2.58225 4.46568 2.38838C4.85274 2.23781 5.42887 2.05906 6.50343 2.00544C7.67012 1.9635 8.01387 1.94838 10.9536 1.94838L10.999 1.98Z" fill="#4D4D4D"/>
</g>
<defs>
<clipPath id="clip0">
<rect width="22" height="22" fill="white"/>
</clipPath>
</defs>
</svg>
